<?xml version="1.0" standalone="no"?>
<!DOCTYPE svg PUBLIC "-//W3C//DTD SVG 20010904//EN"
 "http://www.w3.org/TR/2001/REC-SVG-20010904/DTD/svg10.dtd">
<svg version="1.0" xmlns="http://www.w3.org/2000/svg"
 width="666.000000pt" height="490.000000pt" viewBox="0 0 666.000000 490.000000"
 preserveAspectRatio="xMidYMid meet">

<g transform="translate(0.000000,490.000000) scale(0.100000,-0.100000)"
fill="#000000" stroke="none">
<path d="M2885 4246 c-242 -123 -831 -420 -1310 -661 -478 -241 -876 -442
-883 -448 -9 -7 -12 -285 -12 -1328 l0 -1319 1295 -1 c712 -1 1304 -1 1315 -1
11 0 625 0 1365 1 l1345 1 -2 1321 -3 1321 -265 134 c-594 302 -1517 772
-1960 998 -157 80 -284 150 -283 155 2 6 -5 7 -14 4 -10 -4 -14 -2 -10 4 5 7
-1 9 -15 5 -16 -4 -19 -2 -13 8 6 9 4 11 -5 5 -7 -4 -15 -2 -20 4 -4 7 -25 14
-46 17 -35 3 -86 -20 -479 -220z m-364 -1035 c75 -29 142 -99 163 -172 28 -92
30 -89 -84 -89 -89 0 -100 2 -100 18 0 31 -40 83 -75 98 -84 35 -235 1 -243
-55 -11 -71 20 -92 216 -145 154 -42 217 -71 260 -121 48 -54 65 -101 65 -180
1 -121 -55 -210 -165 -261 -60 -28 -69 -29 -208 -29 -135 0 -149 2 -201 26
-96 46 -168 140 -185 246 l-6 41 43 6 c24 3 66 7 92 8 48 3 49 3 62 -36 31
-90 98 -136 197 -136 111 0 178 48 178 128 0 56 -36 83 -142 111 -225 58 -297
92 -348 163 -88 121 -53 277 80 361 81 51 291 60 401 18z m547 -458 l2 -473
-95 0 -95 0 0 468 c0 258 3 472 7 476 4 4 46 5 93 4 l85 -3 3 -472z m867 392
l0 -80 -137 -3 -138 -3 -2 -387 -3 -387 -95 0 -95 0 -3 387 -2 387 -138 3
-137 3 -3 74 c-2 53 1 77 10 83 7 4 177 7 378 5 l365 -2 0 -80z m823 -2 l3
-83 -256 0 -255 0 0 -100 0 -100 238 -2 237 -3 3 -77 3 -78 -238 -2 -238 -3 0
-125 0 -125 263 -3 262 -2 0 -80 0 -80 -360 0 -360 0 0 468 c0 258 3 472 7
475 4 4 160 6 347 5 l341 -3 3 -82z m-1378 -1298 l0 -75 -80 0 -80 0 0 75 0
75 80 0 80 0 0 -75z m280 0 l0 -75 -80 0 -80 0 0 75 0 75 80 0 80 0 0 -75z
m-75 -130 c154 -41 260 -148 306 -310 22 -80 17 -286 -9 -357 -68 -188 -215
-288 -422 -288 -52 0 -114 5 -138 10 -146 34 -261 146 -309 302 -25 80 -22
274 4 355 51 155 167 263 315 292 71 14 190 12 253 -4z m-1698 -7 c5 -7 19
-60 32 -118 12 -58 33 -152 46 -210 13 -58 33 -145 44 -194 11 -48 21 -90 23
-92 2 -2 41 135 86 304 46 168 88 310 95 314 7 5 59 7 116 6 l104 -3 16 -65
c10 -36 46 -179 81 -318 43 -171 67 -248 72 -235 4 10 37 150 72 312 37 169
70 297 78 302 7 5 48 9 91 9 57 0 79 -4 83 -14 5 -12 -59 -284 -180 -766 l-41
-165 -102 -3 c-57 -1 -103 -1 -103 2 0 10 -171 642 -179 661 -7 16 -11 10 -24
-35 -15 -53 -102 -377 -147 -548 l-22 -82 -103 0 c-73 0 -104 4 -108 13 -18
49 -218 910 -213 922 7 20 169 22 183 3z m2282 -25 c9 -34 130 -579 132 -592
1 -16 23 58 94 324 43 160 83 293 89 297 6 4 57 8 114 8 97 0 103 -1 111 -22
4 -13 41 -155 81 -315 41 -161 76 -293 79 -293 4 0 37 138 74 307 37 169 73
311 80 315 16 10 174 10 180 1 3 -5 -8 -57 -23 -118 -15 -60 -65 -263 -110
-450 -45 -187 -84 -348 -87 -357 -4 -16 -18 -18 -104 -18 -94 0 -100 1 -109
23 -5 12 -32 110 -60 217 -48 181 -61 228 -105 384 -9 32 -18 56 -20 54 -3 -2
-43 -148 -90 -324 -47 -175 -88 -327 -91 -336 -5 -16 -19 -18 -110 -18 -57 0
-104 2 -104 4 0 2 -50 210 -110 462 -61 252 -108 464 -106 471 4 9 32 13 95
13 l90 0 10 -37z"/>
<path d="M3378 1557 c-91 -26 -145 -86 -173 -192 -30 -117 -11 -262 44 -340
16 -22 50 -53 76 -70 43 -27 57 -30 124 -30 116 1 185 45 233 150 19 42 22 67
23 160 0 134 -15 191 -66 249 -61 70 -167 99 -261 73z"/>
<path d="M6012 3070 c0 -14 2 -19 5 -12 2 6 2 18 0 25 -3 6 -5 1 -5 -13z"/>
<path d="M6022 2970 c0 -14 2 -19 5 -12 2 6 2 18 0 25 -3 6 -5 1 -5 -13z"/>
<path d="M6032 2865 c0 -16 2 -22 5 -12 2 9 2 23 0 30 -3 6 -5 -1 -5 -18z"/>
<path d="M6042 2760 c0 -14 2 -19 5 -12 2 6 2 18 0 25 -3 6 -5 1 -5 -13z"/>
<path d="M6052 2670 c0 -14 2 -19 5 -12 2 6 2 18 0 25 -3 6 -5 1 -5 -13z"/>
<path d="M6062 2570 c0 -14 2 -19 5 -12 2 6 2 18 0 25 -3 6 -5 1 -5 -13z"/>
<path d="M6072 2470 c0 -14 2 -19 5 -12 2 6 2 18 0 25 -3 6 -5 1 -5 -13z"/>
<path d="M6082 2365 c0 -16 2 -22 5 -12 2 9 2 23 0 30 -3 6 -5 -1 -5 -18z"/>
<path d="M6092 2265 c0 -16 2 -22 5 -12 2 9 2 23 0 30 -3 6 -5 -1 -5 -18z"/>
<path d="M6102 2170 c0 -14 2 -19 5 -12 2 6 2 18 0 25 -3 6 -5 1 -5 -13z"/>
<path d="M6112 2060 c0 -14 2 -19 5 -12 2 6 2 18 0 25 -3 6 -5 1 -5 -13z"/>
<path d="M6122 1960 c0 -14 2 -19 5 -12 2 6 2 18 0 25 -3 6 -5 1 -5 -13z"/>
<path d="M6132 1860 c0 -14 2 -19 5 -12 2 6 2 18 0 25 -3 6 -5 1 -5 -13z"/>
<path d="M532 1820 c0 -14 2 -19 5 -12 2 6 2 18 0 25 -3 6 -5 1 -5 -13z"/>
<path d="M6142 1760 c0 -14 2 -19 5 -12 2 6 2 18 0 25 -3 6 -5 1 -5 -13z"/>
<path d="M542 1720 c0 -14 2 -19 5 -12 2 6 2 18 0 25 -3 6 -5 1 -5 -13z"/>
<path d="M551 1634 c0 -11 3 -14 6 -6 3 7 2 16 -1 19 -3 4 -6 -2 -5 -13z"/>
<path d="M562 1540 c0 -14 2 -19 5 -12 2 6 2 18 0 25 -3 6 -5 1 -5 -13z"/>
<path d="M571 1444 c0 -11 3 -14 6 -6 3 7 2 16 -1 19 -3 4 -6 -2 -5 -13z"/>
<path d="M582 1360 c0 -14 2 -19 5 -12 2 6 2 18 0 25 -3 6 -5 1 -5 -13z"/>
<path d="M592 1260 c0 -14 2 -19 5 -12 2 6 2 18 0 25 -3 6 -5 1 -5 -13z"/>
<path d="M602 1180 c0 -14 2 -19 5 -12 2 6 2 18 0 25 -3 6 -5 1 -5 -13z"/>
<path d="M612 1080 c0 -14 2 -19 5 -12 2 6 2 18 0 25 -3 6 -5 1 -5 -13z"/>
<path d="M622 990 c0 -14 2 -19 5 -12 2 6 2 18 0 25 -3 6 -5 1 -5 -13z"/>
<path d="M632 900 c0 -14 2 -19 5 -12 2 6 2 18 0 25 -3 6 -5 1 -5 -13z"/>
<path d="M642 810 c0 -14 2 -19 5 -12 2 6 2 18 0 25 -3 6 -5 1 -5 -13z"/>
<path d="M652 720 c0 -14 2 -19 5 -12 2 6 2 18 0 25 -3 6 -5 1 -5 -13z"/>
<path d="M661 624 c0 -11 3 -14 6 -6 3 7 2 16 -1 19 -3 4 -6 -2 -5 -13z"/>
<path d="M3173 473 c9 -2 23 -2 30 0 6 3 -1 5 -18 5 -16 0 -22 -2 -12 -5z"/>
<path d="M5853 473 c9 -2 23 -2 30 0 6 3 -1 5 -18 5 -16 0 -22 -2 -12 -5z"/>
<path d="M3073 463 c9 -2 23 -2 30 0 6 3 -1 5 -18 5 -16 0 -22 -2 -12 -5z"/>
<path d="M5758 463 c6 -2 18 -2 25 0 6 3 1 5 -13 5 -14 0 -19 -2 -12 -5z"/>
<path d="M2968 453 c6 -2 18 -2 25 0 6 3 1 5 -13 5 -14 0 -19 -2 -12 -5z"/>
<path d="M5668 453 c6 -2 18 -2 25 0 6 3 1 5 -13 5 -14 0 -19 -2 -12 -5z"/>
<path d="M2873 443 c9 -2 23 -2 30 0 6 3 -1 5 -18 5 -16 0 -22 -2 -12 -5z"/>
<path d="M5578 443 c6 -2 18 -2 25 0 6 3 1 5 -13 5 -14 0 -19 -2 -12 -5z"/>
<path d="M2768 433 c6 -2 18 -2 25 0 6 3 1 5 -13 5 -14 0 -19 -2 -12 -5z"/>
<path d="M5483 433 c9 -2 23 -2 30 0 6 3 -1 5 -18 5 -16 0 -22 -2 -12 -5z"/>
<path d="M2668 423 c6 -2 18 -2 25 0 6 3 1 5 -13 5 -14 0 -19 -2 -12 -5z"/>
<path d="M5388 423 c6 -2 18 -2 25 0 6 3 1 5 -13 5 -14 0 -19 -2 -12 -5z"/>
<path d="M2563 413 c9 -2 23 -2 30 0 6 3 -1 5 -18 5 -16 0 -22 -2 -12 -5z"/>
<path d="M5298 413 c6 -2 18 -2 25 0 6 3 1 5 -13 5 -14 0 -19 -2 -12 -5z"/>
<path d="M2463 403 c9 -2 23 -2 30 0 6 3 -1 5 -18 5 -16 0 -22 -2 -12 -5z"/>
<path d="M5208 403 c6 -2 18 -2 25 0 6 3 1 5 -13 5 -14 0 -19 -2 -12 -5z"/>
<path d="M2358 393 c6 -2 18 -2 25 0 6 3 1 5 -13 5 -14 0 -19 -2 -12 -5z"/>
<path d="M5118 393 c6 -2 18 -2 25 0 6 3 1 5 -13 5 -14 0 -19 -2 -12 -5z"/>
<path d="M2253 383 c9 -2 23 -2 30 0 6 3 -1 5 -18 5 -16 0 -22 -2 -12 -5z"/>
<path d="M5028 383 c7 -3 16 -2 19 1 4 3 -2 6 -13 5 -11 0 -14 -3 -6 -6z"/>
<path d="M2153 373 c9 -2 23 -2 30 0 6 3 -1 5 -18 5 -16 0 -22 -2 -12 -5z"/>
<path d="M4938 373 c6 -2 18 -2 25 0 6 3 1 5 -13 5 -14 0 -19 -2 -12 -5z"/>
<path d="M2053 363 c9 -2 23 -2 30 0 6 3 -1 5 -18 5 -16 0 -22 -2 -12 -5z"/>
<path d="M4843 363 c9 -2 23 -2 30 0 6 3 -1 5 -18 5 -16 0 -22 -2 -12 -5z"/>
<path d="M1948 353 c6 -2 18 -2 25 0 6 3 1 5 -13 5 -14 0 -19 -2 -12 -5z"/>
<path d="M4748 353 c6 -2 18 -2 25 0 6 3 1 5 -13 5 -14 0 -19 -2 -12 -5z"/>
</g>
</svg>
